<?xml version="1.0" encoding="UTF-8" standalone="no"?>
<!-- Created with Inkscape (http://www.inkscape.org/) -->

<svg
   width="753.50983"
   height="15.999999"
   viewBox="0 0 199.36614 4.2333331"
   version="1.1"
   id="svg355"
   inkscape:version="1.2.2 (732a01da63, 2022-12-09)"
   sodipodi:docname="progress bar striped.svg"
   xml:space="preserve"
   xmlns:inkscape="http://www.inkscape.org/namespaces/inkscape"
   xmlns:sodipodi="http://sodipodi.sourceforge.net/DTD/sodipodi-0.dtd"
   xmlns="http://www.w3.org/2000/svg"
   xmlns:svg="http://www.w3.org/2000/svg"><sodipodi:namedview
     id="namedview357"
     pagecolor="#505050"
     bordercolor="#eeeeee"
     borderopacity="1"
     inkscape:showpageshadow="0"
     inkscape:pageopacity="0"
     inkscape:pagecheckerboard="0"
     inkscape:deskcolor="#505050"
     inkscape:document-units="px"
     showgrid="false"
     inkscape:zoom="0.451238"
     inkscape:cx="386.71388"
     inkscape:cy="55.403135"
     inkscape:window-width="1366"
     inkscape:window-height="745"
     inkscape:window-x="-8"
     inkscape:window-y="-8"
     inkscape:window-maximized="1"
     inkscape:current-layer="layer1" /><defs
     id="defs352"><clipPath
       clipPathUnits="userSpaceOnUse"
       id="clipPath1806"><rect
         rx="1.5875"
         inkscape:label="--bs-progress-bg"
         ry="1.5875"
         y="344.58221"
         x="127.23464"
         height="4.2832565"
         width="206.68832"
         id="rect1810"
         style="display:inline;opacity:0.997;vector-effect:none;fill:#e9ecef;fill-opacity:1;stroke:none;stroke-width:0.165;stroke-linecap:butt;stroke-linejoin:miter;stroke-miterlimit:4;stroke-dasharray:none;stroke-dashoffset:0;stroke-opacity:0.97619"><desc
           id="desc1808">&lt;div class=&quot;progress&quot;&gt;
  &lt;div class=&quot;progress-bar&quot; role=&quot;progressbar&quot; style=&quot;width: 100%&quot; aria-valuenow=&quot;100&quot; aria-valuemin=&quot;0&quot; aria-valuemax=&quot;100&quot;&gt;&lt;/div&gt;
&lt;/div&gt;</desc></rect></clipPath><clipPath
       clipPathUnits="userSpaceOnUse"
       id="clipPath4559"><rect
         ry="0.89769566"
         y="144.28252"
         x="-6.886487"
         height="25.186304"
         width="72.797531"
         id="rect4561"
         style="opacity:1;vector-effect:none;fill:none;fill-opacity:1;stroke:#d5d5d5;stroke-width:0.165;stroke-linecap:butt;stroke-linejoin:miter;stroke-miterlimit:4;stroke-dasharray:none;stroke-dashoffset:0;stroke-opacity:1" /></clipPath><clipPath
       clipPathUnits="userSpaceOnUse"
       id="clipPath4559-3"><rect
         ry="0.89769566"
         y="144.28252"
         x="-6.886487"
         height="25.186304"
         width="72.797531"
         id="rect4561-6"
         style="opacity:1;vector-effect:none;fill:none;fill-opacity:1;stroke:#d5d5d5;stroke-width:0.165;stroke-linecap:butt;stroke-linejoin:miter;stroke-miterlimit:4;stroke-dasharray:none;stroke-dashoffset:0;stroke-opacity:1" /></clipPath><clipPath
       clipPathUnits="userSpaceOnUse"
       id="clipPath4559-0"><rect
         ry="0.89769566"
         y="144.28252"
         x="-6.886487"
         height="25.186304"
         width="72.797531"
         id="rect4561-0"
         style="opacity:1;vector-effect:none;fill:none;fill-opacity:1;stroke:#d5d5d5;stroke-width:0.165;stroke-linecap:butt;stroke-linejoin:miter;stroke-miterlimit:4;stroke-dasharray:none;stroke-dashoffset:0;stroke-opacity:1" /></clipPath><clipPath
       id="clipPath7770"
       clipPathUnits="userSpaceOnUse"><path
         inkscape:connector-curvature="0"
         id="path7772"
         d="m -292.24314,187.71257 5.12784,4.28294 h 2.18281 l -5.12784,-4.28294 z m 3.99976,0 5.12837,4.28294 h 2.18281 l -5.12837,-4.28294 z m 4.00026,0 5.12786,4.28294 h 2.18282 l -5.12787,-4.28294 z m 3.99976,0 5.12837,4.28294 h 2.18281 l -5.12837,-4.28294 z m 4.00026,0 5.12787,4.28294 h 2.18281 l -5.12787,-4.28294 z m 3.99976,0 5.12837,4.28294 h 2.18281 l -5.12837,-4.28294 z m 4.00029,0 5.12785,4.28294 h 2.18281 l -5.12785,-4.28294 z m 3.99975,0 5.12837,4.28294 h 2.18281 l -5.12837,-4.28294 z m 4.00027,0 5.12786,4.28294 h 2.18281 l -5.12785,-4.28294 z m 3.99976,0 5.12837,4.28294 h 2.18229 l -5.12785,-4.28294 z m 4.00027,0 5.12785,4.28294 h 2.18282 l -5.12837,-4.28294 z m 3.99976,0 5.12837,4.28294 h 2.18229 l -5.12785,-4.28294 z m 4.00027,0 5.12785,4.28294 h 2.18281 l -5.12836,-4.28294 z m 3.99976,0 5.12836,4.28294 h 2.1823 l -5.12785,-4.28294 z m 4.00027,0 5.12785,4.28294 h 2.18281 l -5.12837,-4.28294 z m 3.99975,0 5.12837,4.28294 h 2.1823 l -5.12785,-4.28294 z m 4.00028,0 5.12785,4.28294 h 2.18281 l -5.12837,-4.28294 z m 3.99975,0 5.12786,4.28294 h 2.18281 l -5.12785,-4.28294 z m 3.99976,0 5.12837,4.28294 h 2.18281 l -5.12837,-4.28294 z m 4.00027,0 5.12785,4.28294 h 2.18281 l -5.12785,-4.28294 z m 3.99976,0 5.12836,4.28294 h 2.18282 l -5.12837,-4.28294 z m 4.00027,0 5.12785,4.28294 h 2.18281 l -5.12785,-4.28294 z m 3.99976,0 5.12836,4.28294 h 2.18282 l -5.12837,-4.28294 z m 4.00027,0 5.12785,4.28294 h 2.18281 l -5.12785,-4.28294 z m 3.99975,0 5.12837,4.28294 h 2.18282 l -5.12837,-4.28294 z m 4.00028,0 5.12785,4.28294 h 2.18281 l -5.12785,-4.28294 z m 3.99975,0 5.12837,4.28294 h 2.18281 l -5.12836,-4.28294 z m 4.00028,0 5.12785,4.28294 h 2.18281 l -5.12785,-4.28294 z m 3.99975,0 5.12837,4.28294 h 2.18229 l -5.12785,-4.28294 z m 4.00027,0 5.12785,4.28294 h 2.18282 l -5.12837,-4.28294 z m 3.99976,0 5.12837,4.28294 h 2.18229 l -5.12785,-4.28294 z m 4.00027,0 5.12785,4.28294 h 2.18282 l -5.12837,-4.28294 z m 3.99976,0 5.12837,4.28294 h 2.18229 l -5.12785,-4.28294 z m 4.00027,0 5.12785,4.28294 h 2.18282 l -5.12837,-4.28294 z m 3.99976,0 5.12837,4.28294 h 2.18229 l -5.12785,-4.28294 z m 4.00027,0 5.12785,4.28294 h 2.18281 l -5.12836,-4.28294 z m 3.99976,0 5.12785,4.28294 h 2.18281 l -5.12785,-4.28294 z m 3.99975,0 5.12837,4.28294 h 2.18281 l -5.12837,-4.28294 z m 4.00027,0 5.12785,4.28294 h 2.18282 l -5.12785,-4.28294 z m 3.99976,0 5.12837,4.28294 h 2.18281 l -5.12837,-4.28294 z m 4.00027,0 5.12785,4.28294 h 2.18282 l -5.12786,-4.28294 z m 3.99976,0 5.12837,4.28294 h 2.18281 l -5.12837,-4.28294 z m 4.00027,0 5.12785,4.28294 h 2.18281 l -5.12785,-4.28294 z m 3.99976,0 5.12836,4.28294 h 2.18282 l -5.12837,-4.28294 z m 4.00027,0 5.12785,4.28294 h 2.18281 l -5.12785,-4.28294 z m 3.99976,0 5.12836,4.28294 h 2.1823 l -5.12785,-4.28294 z m 4.00027,0 5.12785,4.28294 h 2.18281 l -5.12785,-4.28294 z m 3.99975,0 5.12837,4.28294 h 2.182294 l -5.127854,-4.28294 z m 4.00027,0 5.127857,4.28294 h 2.182812 l -5.128371,-4.28294 z m 3.999758,0 5.128371,4.28294 h 2.182294 l -5.127853,-4.28294 z m 4.000272,0 5.127853,4.28294 h 2.182812 l -5.128368,-4.28294 z m 3.999757,0 5.128368,4.28294 h 2.182297 l -5.127853,-4.28294 z m 4.000272,0 5.127853,4.28294 h 2.182812 l -5.128368,-4.28294 z m 3.999757,0 5.127852,4.28294 h 2.182813 l -5.127853,-4.28294 z m 3.999756,0 5.128369,4.28294 h 2.182812 l -5.128368,-4.28294 z m 4.000273,0 5.127852,4.28294 h 2.182813 l -5.127853,-4.28294 z m 3.999756,0 5.128369,4.28294 h 2.182812 l -5.128368,-4.28294 z m 4.000273,0 5.127852,4.28294 h 2.182813 l -5.127853,-4.28294 z m 3.999754,0 5.128371,4.28294 h 2.182812 l -5.128371,-4.28294 z m 4.000272,0 5.127853,4.28294 h 2.182812 l -5.127852,-4.28294 z m 3.999757,0 5.128368,4.28294 h 2.182813 l -5.128369,-4.28294 z m 4.000272,0 5.127853,4.28294 h 2.182812 l -5.127852,-4.28294 z m 3.999757,0 5.128368,4.28294 h 2.182813 l -5.128369,-4.28294 z m 4.000272,0 5.127853,4.28294 h 2.182812 l -5.127852,-4.28294 z m 3.999757,0 5.128368,4.28294 h 2.182297 l -5.127853,-4.28294 z m 4.000272,0 5.127853,4.28294 h 2.182812 l -5.128368,-4.28294 z m 3.999757,0 5.128368,4.28294 h 2.182296 l -5.127853,-4.28294 z m 4.000272,0 5.127852,4.28294 h 2.182812 l -5.128369,-4.28294 z m 3.999755,0 5.12837,4.28294 h 2.182295 l -5.127852,-4.28294 z m 4.000273,0 5.127852,4.28294 h 2.1828126 l -5.1283686,-4.28294 z m 3.999756,0 5.1278521,4.28294 h 2.1828125 l -5.1278526,-4.28294 z m 3.9997555,0 5.128369,4.28294 h 2.18281266 L -6.060612,187.71257 Z"
         style="opacity:1;vector-effect:none;fill:#268fff;fill-opacity:1;stroke:none;stroke-width:0.165;stroke-linecap:butt;stroke-linejoin:miter;stroke-miterlimit:4;stroke-dasharray:none;stroke-dashoffset:0;stroke-opacity:0.97619" /></clipPath></defs><g
     inkscape:label="Progress"
     inkscape:groupmode="layer"
     id="layer1"
     transform="translate(-169.91441,-356.05066)"><rect
       inkscape:label="--bs-progress-bg"
       ry="1.5875"
       rx="1.5875"
       y="356.05066"
       x="169.91446"
       height="4.2333331"
       width="199.36604"
       id="rect1847"
       style="font-variation-settings:normal;vector-effect:none;fill:#e9ecef;fill-opacity:1;fill-rule:evenodd;stroke:none;stroke-width:0.165;stroke-linecap:butt;stroke-linejoin:miter;stroke-miterlimit:4;stroke-dasharray:none;stroke-dashoffset:0;stroke-opacity:0.97619;stop-color:#000000" /><g
       id="g1901"
       inkscape:label="width"><rect
         inkscape:label="progress-bar"
         y="356.05066"
         x="169.91446"
         height="4.2333331"
         width="199.36604"
         id="rect855"
         style="font-variation-settings:normal;vector-effect:none;fill:#007bff;fill-opacity:1;fill-rule:evenodd;stroke:none;stroke-width:0.165;stroke-linecap:butt;stroke-linejoin:miter;stroke-miterlimit:4;stroke-dasharray:none;stroke-dashoffset:0;stroke-opacity:0.97619;stop-color:#000000" /><path
         inkscape:label="background-image"
         d="m 171.77271,356.05066 4.19096,4.23333 h 2.13734 l -4.19044,-4.23333 z m 4.24419,0 4.19096,4.23333 h 2.13785 l -4.19096,-4.23333 z m 4.24418,0 4.19096,4.23333 h 2.13786 l -4.19096,-4.23333 z m 4.24419,0 4.19096,4.23333 h 2.13785 l -4.19096,-4.23333 z m 4.24418,0 4.19096,4.23333 h 2.13786 l -4.19096,-4.23333 z m 4.24471,0 4.19044,4.23333 h 2.13785 l -4.19096,-4.23333 z m 4.24418,0 4.19096,4.23333 h 2.13734 l -4.19096,-4.23333 z m 4.24419,0 4.19096,4.23333 h 2.13733 l -4.19096,-4.23333 z m 4.24418,0 4.19096,4.23333 h 2.13785 l -4.19095,-4.23333 z m 4.24419,0 4.19096,4.23333 h 2.13785 l -4.19096,-4.23333 z m 4.24418,0 4.19096,4.23333 h 2.13785 l -4.19095,-4.23333 z m 4.24419,0 4.19096,4.23333 h 2.13785 l -4.19096,-4.23333 z m 4.24418,0 4.19096,4.23333 h 2.13786 l -4.19096,-4.23333 z m 4.24471,0 4.19096,4.23333 h 2.13733 l -4.19096,-4.23333 z m 4.24418,0 4.19096,4.23333 h 2.13734 l -4.19096,-4.23333 z m 4.24419,0 4.19096,4.23333 h 2.13733 l -4.19044,-4.23333 z m 4.24418,0 4.19096,4.23333 h 2.13785 l -4.19095,-4.23333 z m 4.24419,0 4.19096,4.23333 h 2.13785 l -4.19096,-4.23333 z m 4.24418,0 4.19096,4.23333 h 2.13785 l -4.19095,-4.23333 z m 4.24419,0 4.19096,4.23333 h 2.13785 l -4.19096,-4.23333 z m 4.2447,0 4.19044,4.23333 h 2.13786 l -4.19096,-4.23333 z m 4.24419,0 4.19095,4.23333 h 2.13734 l -4.19096,-4.23333 z m 4.24418,0 4.19096,4.23333 h 2.13734 l -4.19096,-4.23333 z m 4.24419,0 4.19095,4.23333 h 2.13786 l -4.19096,-4.23333 z m 4.24418,0 4.19096,4.23333 h 2.13785 l -4.19095,-4.23333 z m 4.24419,0 4.19096,4.23333 h 2.13785 l -4.19096,-4.23333 z m 4.24418,0 4.19096,4.23333 h 2.13785 l -4.19095,-4.23333 z m 4.2447,0 4.19045,4.23333 h 2.13785 l -4.19096,-4.23333 z m 4.24419,0 4.19096,4.23333 h 2.13733 l -4.19095,-4.23333 z m 4.24419,0 4.19095,4.23333 h 2.13734 l -4.19096,-4.23333 z m 4.24418,0 4.19096,4.23333 h 2.13734 l -4.19045,-4.23333 z m 4.24419,0 4.19095,4.23333 h 2.13786 l -4.19096,-4.23333 z m 4.24418,0 4.19096,4.23333 h 2.13785 l -4.19096,-4.23333 z m 4.24419,0 4.19095,4.23333 h 2.13786 l -4.19096,-4.23333 z m 4.24418,0 4.19096,4.23333 h 2.13837 l -4.19148,-4.23333 z m 4.24471,0 4.19095,4.23333 h 2.13734 l -4.19096,-4.23333 z m 4.24418,0 4.19096,4.23333 h 2.13785 l -4.19147,-4.23333 z m 4.24419,0 4.19095,4.23333 h 2.13786 l -4.19096,-4.23333 z m 4.24418,0 4.19096,4.23333 h 2.13837 l -4.19148,-4.23333 z m 4.24419,0 4.19095,4.23333 h 2.13837 l -4.19147,-4.23333 z m 4.24418,0 4.19096,4.23333 h 2.13837 l -4.19148,-4.23333 z m 4.24419,0 4.19095,4.23333 h 2.13837 l -4.19095,-4.23333 z m 4.2447,0 4.19044,4.23333 h 2.13837 l -4.19096,-4.23333 z m 4.24418,0 4.19096,4.23333 h 2.13786 l -4.19096,-4.23333 z m 4.24419,0 4.19096,4.23333 h 2.13785 l -4.19096,-4.23333 z m 4.24418,0 4.19096,4.23333 h 1.79628 c 0.0983,0 0.18894,-0.0285 0.26768,-0.0749 l -4.11654,-4.1584 z m 4.24419,0 2.27221,2.29495 v -1.76578 c 0,-0.29316 -0.23601,-0.52917 -0.52916,-0.52917 z M 169.96611,356.354 c -0.0323,0.0686 -0.0517,0.14473 -0.0517,0.22583 v 1.72651 l 1.95802,1.97765 h 1.98437 z"
         style="font-variation-settings:normal;vector-effect:none;fill:#258dfd;fill-opacity:1;fill-rule:evenodd;stroke:none;stroke-width:0.999997;stroke-linecap:butt;stroke-linejoin:miter;stroke-miterlimit:4;stroke-dasharray:none;stroke-dashoffset:0;stroke-opacity:1;stop-color:#000000"
         id="rect1908" /></g></g></svg>
